# xmcd
#
# Track frame offsets: 
#        150
#        27280
#        46075
#        70027
#        86827
#        104625
#        131837
#        150010
#        172867
#        193762
#
# Disc length: 2748 seconds
#
# Revision: 1
# Processed by: cddbd v1.5.2PL0 Copyright (c) Steve Scherf et al.
# Submitted via: ExactAudioCopyFreeDBPlugin 1.0
#
DISCID=790aba0a
DTITLE=阿吉仔 - 阿吉仔：精選唸歌卷壹
DYEAR=2000
DGENRE=Pop
TTITLE0=一隻鳥仔哮啾啾
TTITLE1=心酸酸
TTITLE2=思念故鄉
TTITLE3=春花夢露
TTITLE4=双雁影
TTITLE5=河邊春夢
TTITLE6=青春悲喜曲
TTITLE7=南都夜曲
TTITLE8=孤戀花
TTITLE9=滿山春色
EXTD=
EXTT0=
EXTT1=
EXTT2=
EXTT3=
EXTT4=
EXTT5=
EXTT6=
EXTT7=
EXTT8=
EXTT9=
PLAYORDER=
